<svg width="60" height="60" viewBox="0 0 60 60" fill="none" xmlns="http://www.w3.org/2000/svg">
<path fill-rule="evenodd" clip-rule="evenodd" d="M30 22.0625C25.6162 22.0625 22.0625 25.6162 22.0625 30C22.0625 34.3838 25.6162 37.9375 30 37.9375C34.3838 37.9375 37.9375 34.3838 37.9375 30C37.9375 25.6162 34.3838 22.0625 30 22.0625ZM21.0625 30C21.0625 25.0639 25.0639 21.0625 30 21.0625C34.936 21.0625 38.9375 25.0639 38.9375 30C38.9375 34.936 34.936 38.9375 30 38.9375C25.0639 38.9375 21.0625 34.936 21.0625 30ZM30 11.75C19.9208 11.75 11.75 19.9208 11.75 30C11.75 40.0792 19.9208 48.25 30 48.25C40.0792 48.25 48.25 40.0792 48.25 30C48.25 19.9208 40.0792 11.75 30 11.75ZM10.75 30C10.75 19.3685 19.3685 10.75 30 10.75C40.6315 10.75 49.25 19.3685 49.25 30C49.25 40.6315 40.6315 49.25 30 49.25C19.3685 49.25 10.75 40.6315 10.75 30ZM30 1C13.9837 1 0.999997 13.9837 1 30C1 46.0163 13.9837 59 30 59C46.0163 59 59 46.0163 59 30C59 13.9837 46.0162 0.999997 30 1ZM0 30C-2.88955e-06 13.4315 13.4315 2.88949e-06 30 0C46.5685 -2.88948e-06 60 13.4315 60 30C60 46.5685 46.5685 60 30 60C13.4315 60 4.33803e-06 46.5685 0 30Z" fill="#111111"/>
</svg>
