<svg width="60" height="60" viewBox="0 0 60 60" fill="none" xmlns="http://www.w3.org/2000/svg">
<path fill-rule="evenodd" clip-rule="evenodd" d="M30 48.9595C40.471 48.9595 48.9595 40.471 48.9595 30H49.9595C49.9595 41.0233 41.0233 49.9595 30 49.9595C18.9767 49.9595 10.0405 41.0233 10.0405 30H11.0405C11.0405 40.471 19.529 48.9595 30 48.9595ZM26.5187 22.8113C26.8497 22.083 27.0676 21.0417 27.0676 19.8649C27.0676 18.688 26.8497 17.6467 26.5187 16.9185C26.1671 16.145 25.7836 15.9054 25.5405 15.9054C25.2974 15.9054 24.914 16.145 24.5624 16.9185C24.2314 17.6467 24.0135 18.688 24.0135 19.8649C24.0135 21.0417 24.2314 22.083 24.5624 22.8113C24.914 23.5847 25.2974 23.8243 25.5405 23.8243C25.7836 23.8243 26.1671 23.5847 26.5187 22.8113ZM27.429 23.2251C27.047 24.0657 26.4169 24.8243 25.5405 24.8243C24.6642 24.8243 24.0341 24.0657 23.652 23.2251C23.2494 22.3394 23.0135 21.1509 23.0135 19.8649C23.0135 18.5788 23.2494 17.3904 23.652 16.5047C24.0341 15.6641 24.6642 14.9054 25.5405 14.9054C26.4169 14.9054 27.047 15.6641 27.4291 16.5047C27.8316 17.3904 28.0676 18.5788 28.0676 19.8649C28.0676 21.1509 27.8316 22.3394 27.429 23.2251ZM35.4376 22.8113C35.7686 22.083 35.9865 21.0417 35.9865 19.8649C35.9865 18.688 35.7686 17.6467 35.4376 16.9185C35.086 16.145 34.7026 15.9054 34.4595 15.9054C34.2164 15.9054 33.8329 16.145 33.4813 16.9185C33.1503 17.6467 32.9324 18.688 32.9324 19.8649C32.9324 21.0417 33.1503 22.083 33.4813 22.8113C33.8329 23.5847 34.2164 23.8243 34.4595 23.8243C34.7026 23.8243 35.086 23.5847 35.4376 22.8113ZM36.348 23.2251C35.9659 24.0657 35.3358 24.8243 34.4595 24.8243C33.5831 24.8243 32.953 24.0657 32.571 23.2251C32.1684 22.3394 31.9324 21.1509 31.9324 19.8649C31.9324 18.5788 32.1684 17.3904 32.571 16.5047C32.953 15.6641 33.5831 14.9054 34.4595 14.9054C35.3358 14.9054 35.9659 15.6641 36.348 16.5047C36.7506 17.3904 36.9865 18.5788 36.9865 19.8649C36.9865 21.1509 36.7506 22.3394 36.348 23.2251ZM30 59C46.0163 59 59 46.0163 59 30C59 13.9837 46.0163 1 30 1C13.9837 1 1 13.9837 1 30C1 46.0163 13.9837 59 30 59ZM30 60C46.5685 60 60 46.5685 60 30C60 13.4315 46.5685 0 30 0C13.4315 0 0 13.4315 0 30C0 46.5685 13.4315 60 30 60Z" fill="#111111"/>
</svg>
